<svg id="Layer_1" data-name="Layer 1" xmlns="http://www.w3.org/2000/svg" viewBox="0 0 225 346.42"><defs><style>.cls-1{fill:#9259a4;}.cls-2{fill:#f6b241;}.cls-3{fill:#7c4e9f;}</style></defs><polygon class="cls-1" points="75 86.61 75 259.81 0 303.11 0 129.91 75 86.61"/><polygon class="cls-2" points="225 259.81 150 303.11 75 346.42 0 303.11 75 259.81 150 216.51 225 259.81"/><polygon class="cls-2" points="225 86.61 225 173.21 150 216.51 75 173.21 225 86.61"/><polygon class="cls-1" points="225 86.61 150 129.91 75 86.61 0 43.31 75 0 150 43.31 225 86.61"/><polygon class="cls-3" points="0 303.11 75 244.91 75 259.81 0 303.11"/><polygon class="cls-3" points="150 129.91 213.99 80.25 225 86.61 150 129.91"/></svg>