<?xml version="1.0" standalone="no"?>
<!DOCTYPE svg PUBLIC "-//W3C//DTD SVG 20010904//EN"
 "http://www.w3.org/TR/2001/REC-SVG-20010904/DTD/svg10.dtd">
<svg version="1.0" xmlns="http://www.w3.org/2000/svg"
 width="347.000000pt" height="347.000000pt" viewBox="0 0 347.000000 347.000000"
 preserveAspectRatio="xMidYMid meet">
<metadata>
Created by potrace 1.11, written by Peter Selinger 2001-2013
</metadata>
<g transform="translate(0.000000,347.000000) scale(0.100000,-0.100000)"
fill="#000000" stroke="none">
<path d="M1344 3460 c-5 -5 -81 -50 -169 -101 -88 -50 -173 -100 -190 -110
-16 -10 -52 -30 -80 -44 -27 -15 -57 -33 -65 -39 -8 -6 -35 -22 -60 -36 -25
-13 -73 -40 -108 -60 -69 -40 -69 -38 8 -82 25 -14 61 -35 80 -46 19 -11 139
-79 265 -152 127 -74 249 -144 272 -158 24 -13 45 -27 47 -31 4 -6 -236 -150
-463 -277 -31 -17 -104 -59 -163 -93 l-108 -63 0 -868 0 -868 83 -48 c45 -27
98 -57 118 -69 20 -11 151 -87 292 -168 l257 -149 212 123 c117 67 229 131
248 142 19 10 87 50 150 87 63 37 282 163 485 280 204 117 378 219 388 225 18
13 3 23 -243 163 -19 11 -118 68 -220 128 -102 59 -202 117 -222 128 -21 12
-38 23 -38 26 1 3 166 100 368 216 l367 212 3 435 2 435 -29 21 c-16 12 -32
21 -35 21 -3 0 -38 19 -78 43 -40 24 -80 46 -88 50 -8 4 -31 17 -50 28 -19 12
-141 82 -270 156 -129 74 -247 144 -262 154 -15 10 -30 19 -33 19 -2 0 -143
80 -312 178 -375 218 -348 203 -359 192z m188 -964 c90 -51 179 -103 198 -114
165 -93 356 -205 363 -212 5 -4 -72 -54 -170 -111 -387 -224 -553 -319 -558
-319 -3 0 -5 191 -5 425 0 234 2 425 5 425 3 0 78 -42 167 -94z m83 -913 c105
-61 241 -140 304 -177 62 -36 116 -66 120 -66 3 0 20 -11 36 -24 28 -23 29
-25 10 -32 -11 -4 -153 -85 -315 -179 -162 -94 -321 -186 -352 -204 l-58 -32
0 431 0 432 33 -20 c17 -11 118 -69 222 -129z"/>
</g>
</svg>
